<svg width="100" height="25" viewBox="0 0 100 25" fill="none" xmlns="http://www.w3.org/2000/svg">
<g clip-path="url(#clip0_4_341)">
<g clip-path="url(#clip1_4_341)">
<g clip-path="url(#clip2_4_341)">
<path fill-rule="evenodd" clip-rule="evenodd" d="M45.5891 20.1153V4.58105H48.4427V20.1153H45.5891ZM43.5499 14.8388C43.5499 18.0791 41.1685 20.4399 38.0138 20.4399C34.8591 20.4399 32.4777 18.0791 32.4777 14.8388C32.4777 11.578 34.8591 9.23783 38.0138 9.23783C41.1685 9.23783 43.5499 11.575 43.5499 14.8388ZM40.6962 14.8388C40.6962 12.844 39.4096 11.8347 38.0138 11.8347C36.618 11.8347 35.3313 12.844 35.3313 14.8388C35.3313 16.8131 36.618 17.843 38.0138 17.843C39.4096 17.843 40.6962 16.8338 40.6962 14.8388ZM54.3862 18.7874L51.8985 24.2792H54.9233L61.5543 9.55943H58.5059L55.909 15.7389L53.0966 9.55943H49.9006L54.3862 18.7874ZM63.077 20.1153V9.55943H65.8008V10.8461C66.3792 9.81619 67.7308 9.25848 68.8905 9.25848C70.3277 9.25848 71.4874 9.8811 72.0245 11.0172C72.8627 9.73063 73.9781 9.25848 75.371 9.25848C77.3246 9.25848 79.1897 10.4389 79.1897 13.2718V20.1182H76.4216V13.8503C76.4216 12.7141 75.8638 11.8553 74.5535 11.8553C73.3318 11.8553 72.6 12.7997 72.6 13.9358V20.1153H69.767V13.8503C69.767 12.7141 69.1886 11.8553 67.899 11.8553C66.6537 11.8553 65.9248 12.779 65.9248 13.9358V20.1153H63.077ZM86.532 20.437C89.1285 20.437 91.0082 19.0117 91.3716 16.3823H88.9543C88.6123 17.3266 87.8831 17.9906 86.5527 17.9906C85.1363 17.9906 83.9553 16.9843 83.8909 15.5885H91.4451C91.4451 15.5785 91.4475 15.5458 91.4517 15.4961C91.4641 15.3403 91.4897 15.0177 91.4897 14.709C91.4897 11.3183 89.5357 9.23783 86.2752 9.23783C83.5688 9.23783 81.0812 11.4246 81.0812 14.7946C81.0812 18.3565 83.6341 20.437 86.532 20.437ZM86.3165 11.5544C87.9484 11.5544 88.633 12.5843 88.6776 13.6348H83.9553C84.0206 12.6699 84.8349 11.5544 86.3165 11.5544ZM99.9646 12.3925C99.6434 12.3276 99.3626 12.3069 99.1058 12.3069C97.6481 12.3069 96.3821 13.0151 96.3821 15.2903V20.1182H93.5287V9.55943H96.297V11.1264C96.9403 9.73063 98.4005 9.47387 99.3007 9.47387C99.5368 9.47387 99.7524 9.49451 99.9646 9.51813V12.3925ZM24.3741 20.0858V14.3608H27.1008C30.105 14.3608 32.0999 12.3866 32.0999 9.61847C32.0999 6.87107 30.105 4.87617 27.1008 4.87617H21.4142V20.0858H24.3741ZM29.1164 9.63912C29.1164 10.9465 28.2163 11.8052 26.7349 11.8052H24.3947V7.44947H26.7349C28.2163 7.44947 29.1164 8.28757 29.1164 9.63912Z" fill="black"/>
<path fill-rule="evenodd" clip-rule="evenodd" d="M14.0471 12.0373C12.6846 11.0781 12.6846 9.05879 14.0471 8.10275C14.795 7.57923 15.286 6.71101 15.286 5.72898C15.286 4.12913 13.9918 2.83494 12.392 2.83494C11.7903 2.83494 11.2278 3.02029 10.7661 3.33571C8.96464 4.5421 6.51605 3.90802 5.52102 1.98299C5.04627 1.03348 4.06424 0.379883 2.92938 0.379883C1.32953 0.379883 0.0353394 1.67407 0.0353394 3.27393C0.0353394 4.87378 1.32953 6.16797 2.92938 6.16797C3.53096 6.16797 4.0935 5.98262 4.55525 5.6672C6.35671 4.46081 8.80525 5.0949 9.80033 7.01993C10.0182 7.45566 10.3401 7.82636 10.7336 8.10275C12.0895 9.05548 12.0961 11.0651 10.7498 12.0276C8.94837 13.221 6.50954 12.5869 5.51777 10.6684C5.04627 9.71559 4.06424 9.06201 2.92938 9.06201C1.32953 9.06201 0.0353394 10.3562 0.0353394 11.9561C0.0353394 12.9381 0.523099 13.8063 1.27425 14.3298C2.63673 15.2891 2.63673 17.3084 1.27425 18.2644C0.523099 18.7879 0.0353394 19.6562 0.0353394 20.6382C0.0353394 22.2381 1.32953 23.5323 2.92938 23.5323C4.52923 23.5323 5.82343 22.2381 5.82343 20.6382C5.82343 19.6562 5.33566 18.7879 4.58452 18.2644C3.22854 17.3117 3.22204 15.3054 4.56826 14.3428C6.36972 13.1494 8.80855 13.7835 9.80033 15.702C10.275 16.6516 11.2571 17.3052 12.392 17.3052C13.9918 17.3052 15.286 16.011 15.286 14.4111C15.286 13.4291 14.7982 12.5609 14.0471 12.0373Z" fill="#020203"/>
</g>
</g>
</g>
<defs>
<clipPath id="clip0_4_341">
<rect width="100" height="23.95" fill="white" transform="translate(0 0.379883)"/>
</clipPath>
<clipPath id="clip1_4_341">
<rect width="100" height="23.95" fill="white" transform="translate(0 0.379883)"/>
</clipPath>
<clipPath id="clip2_4_341">
<rect width="99.9293" height="23.95" fill="white" transform="translate(0.0353394 0.379883)"/>
</clipPath>
</defs>
</svg>
