<svg width="134" height="34" viewBox="0 0 134 34" fill="none" xmlns="http://www.w3.org/2000/svg">
<g clip-path="url(#clip0_4_416)">
<g clip-path="url(#clip1_4_416)">
<g clip-path="url(#clip2_4_416)">
<path fill-rule="evenodd" clip-rule="evenodd" d="M61.0528 27.7502V6.93036H64.8774V27.7502H61.0528ZM58.3198 20.6784C58.3198 25.0211 55.128 28.1852 50.9 28.1852C46.6719 28.1852 43.4801 25.0211 43.4801 20.6784C43.4801 16.308 46.6719 13.1716 50.9 13.1716C55.128 13.1716 58.3198 16.304 58.3198 20.6784ZM54.4952 20.6784C54.4952 18.0047 52.7707 16.6521 50.9 16.6521C49.0292 16.6521 47.3047 18.0047 47.3047 20.6784C47.3047 23.3244 49.0292 24.7047 50.9 24.7047C52.7707 24.7047 54.4952 23.3521 54.4952 20.6784ZM72.8431 25.9703L69.5089 33.3308H73.5629L82.4501 13.6026H78.3644L74.8839 21.8847L71.1147 13.6026H66.8313L72.8431 25.9703ZM84.4909 27.7502V13.6027H88.1415V15.3271C88.9167 13.9467 90.7281 13.1992 92.2825 13.1992C94.2087 13.1992 95.763 14.0338 96.4829 15.5565C97.6061 13.8321 99.1012 13.1992 100.968 13.1992C103.586 13.1992 106.086 14.7813 106.086 18.5782V27.7541H102.376V19.3534C102.376 17.8307 101.628 16.6797 99.8724 16.6797C98.235 16.6797 97.2541 17.9454 97.2541 19.4681V27.7502H93.4572V19.3534C93.4572 17.8307 92.682 16.6797 90.9536 16.6797C89.2845 16.6797 88.3076 17.9177 88.3076 19.4681V27.7502H84.4909ZM115.926 28.1813C119.407 28.1813 121.926 26.2709 122.413 22.7469H119.173C118.715 24.0126 117.738 24.9025 115.954 24.9025C114.055 24.9025 112.473 23.5538 112.386 21.683H122.512C122.512 21.6698 122.515 21.6267 122.52 21.5614V21.5599C122.537 21.3511 122.571 20.9183 122.571 20.5044C122.571 15.9599 119.953 13.1716 115.582 13.1716C111.955 13.1716 108.621 16.1023 108.621 20.6191C108.621 25.3929 112.042 28.1813 115.926 28.1813ZM115.638 16.2763C117.825 16.2763 118.742 17.6567 118.802 19.0647H112.473C112.56 17.7714 113.652 16.2763 115.638 16.2763ZM133.93 17.3996C133.499 17.3126 133.123 17.2849 132.779 17.2849C130.825 17.2849 129.128 18.2341 129.128 21.2835V27.7541H125.304V13.6027H129.014V15.7028C129.876 13.8321 131.834 13.488 133.04 13.488C133.356 13.488 133.645 13.5156 133.93 13.5473V17.3996ZM32.6193 27.7106V20.0377H36.2739C40.3002 20.0377 42.9739 17.3917 42.9739 13.6818C42.9739 9.99954 40.3002 7.32587 36.2739 7.32587H28.6523V27.7106H32.6193ZM38.9752 13.7094C38.9752 15.4616 37.7689 16.6125 35.7834 16.6125H32.647V10.7747H35.7834C37.7689 10.7747 38.9752 11.898 38.9752 13.7094Z" fill="white"/>
<path fill-rule="evenodd" clip-rule="evenodd" d="M18.7792 16.9239C16.9532 15.6382 16.9532 12.9318 18.7792 11.6505C19.7816 10.9488 20.4397 9.78522 20.4397 8.46907C20.4397 6.32486 18.7051 4.59032 16.5609 4.59032C15.7547 4.59032 15.0007 4.83874 14.3819 5.26148C11.9675 6.87835 8.68577 6.02851 7.35218 3.44849C6.71589 2.17591 5.39973 1.29993 3.87874 1.29993C1.73454 1.29993 0 3.03447 0 5.17867C0 7.32288 1.73454 9.05741 3.87874 9.05741C4.685 9.05741 5.43896 8.809 6.05781 8.38626C8.47222 6.76939 11.7539 7.61923 13.0875 10.1993C13.3795 10.7832 13.8109 11.2801 14.3383 11.6505C16.1556 12.9274 16.1643 15.6208 14.3601 16.9108C11.9457 18.5102 8.67706 17.6604 7.34782 15.0891C6.71589 13.8121 5.39973 12.9362 3.87874 12.9362C1.73454 12.9362 0 14.6707 0 16.8149C0 18.1311 0.653721 19.2947 1.66045 19.9963C3.48651 21.282 3.48651 23.9884 1.66045 25.2697C0.653721 25.9714 0 27.135 0 28.4511C0 30.5953 1.73454 32.3299 3.87874 32.3299C6.02295 32.3299 7.75749 30.5953 7.75749 28.4511C7.75749 27.135 7.10377 25.9714 6.09704 25.2697C4.27969 23.9928 4.27098 21.3038 6.07525 20.0138C8.48966 18.4143 11.7583 19.2642 13.0875 21.8355C13.7238 23.1081 15.0399 23.984 16.5609 23.984C18.7051 23.984 20.4397 22.2495 20.4397 20.1053C20.4397 18.7891 19.786 17.6255 18.7792 16.9239Z" fill="white"/>
</g>
</g>
</g>
<defs>
<clipPath id="clip0_4_416">
<rect width="134" height="33" fill="white" transform="translate(0 0.5)"/>
</clipPath>
<clipPath id="clip1_4_416">
<rect width="134" height="33" fill="white" transform="translate(0 0.5)"/>
</clipPath>
<clipPath id="clip2_4_416">
<rect width="134" height="33" fill="white" transform="translate(0 0.5)"/>
</clipPath>
</defs>
</svg>
