<svg width="99" height="99" viewBox="0 0 99 99" fill="none" xmlns="http://www.w3.org/2000/svg">
<rect x="0.609985" y="1.08997" width="97" height="97" rx="5.5" fill="white"/>
<rect x="0.609985" y="1.08997" width="97" height="97" rx="5.5" stroke="#E3E7EF"/>
<g clip-path="url(#clip0_4_207)">
<g clip-path="url(#clip1_4_207)">
<g clip-path="url(#clip2_4_207)">
<path d="M42.2066 34.4659C42.6286 33.358 43.2089 32.338 44.0706 31.5115C47.5173 28.1527 53.2149 28.9968 55.5538 33.2173C57.3123 36.4178 59.1764 39.5481 60.9876 42.7134L70.0617 58.505C72.5764 62.9188 69.8506 68.4934 64.8564 69.2495C61.7966 69.7068 58.9302 68.3 57.3475 65.5567L49.3638 51.6994C49.311 51.594 49.2406 51.506 49.1703 51.4181C48.889 51.1895 48.7658 50.8554 48.59 50.5564L42.7165 40.3746C42.0306 39.1787 41.7142 37.8774 41.7493 36.5058C41.8021 35.8023 41.89 35.0989 42.2066 34.4659Z" fill="#3B77DB"/>
<path d="M42.2059 34.4626C42.0476 35.0957 41.9069 35.7288 41.8718 36.397C41.819 37.8742 42.1884 39.2459 42.9269 40.5296L48.7125 50.5356C48.8883 50.8346 49.029 51.1335 49.2048 51.4149L46.0219 56.8839L41.5728 64.551C41.5025 64.551 41.4849 64.5159 41.4673 64.4631C41.4498 64.3225 41.5025 64.1994 41.5377 64.0587C42.2586 61.4209 41.6607 59.0821 39.8495 57.0773C38.7416 55.8639 37.3348 55.1781 35.7169 54.9495C33.6067 54.6506 31.7427 55.1957 30.072 56.5146C29.7731 56.7432 29.5797 57.0773 29.228 57.2532C29.1576 57.2532 29.1224 57.218 29.1049 57.1652L31.6196 52.7866L42.0828 34.6561C42.118 34.5857 42.1707 34.533 42.2059 34.4626Z" fill="#E1A904"/>
<path d="M29.1751 57.2193L30.1775 56.3225C34.4507 52.946 40.8694 55.3904 41.8014 60.7363C42.03 62.0201 41.9068 63.251 41.52 64.482C41.5024 64.5876 41.4848 64.6755 41.4497 64.781C41.2914 65.0623 41.1507 65.3613 40.9749 65.6427C39.4098 68.2276 37.1061 69.5114 34.0814 69.318C30.6171 69.0718 27.8914 66.4692 27.4166 63.0224C27.188 61.3519 27.5221 59.7867 28.3838 58.3448C28.5596 58.0282 28.7707 57.7468 28.9641 57.4303C29.052 57.36 29.0169 57.2193 29.1751 57.2193Z" fill="#2F974B"/>
<path d="M29.1751 57.2203C29.1048 57.2906 29.1048 57.4137 28.9817 57.4313C28.9641 57.3082 29.0345 57.2378 29.1048 57.1499L29.1751 57.2203Z" fill="#FABC04"/>
<path d="M41.4504 64.7844C41.3801 64.6613 41.4504 64.5734 41.5208 64.4855L41.5911 64.5558L41.4504 64.7844Z" fill="#E1C025"/>
</g>
</g>
</g>
<defs>
<clipPath id="clip0_4_207">
<rect x="27.03" y="29.39" width="44.16" height="40.39" rx="6" fill="white"/>
</clipPath>
<clipPath id="clip1_4_207">
<rect width="44.16" height="40.39" fill="white" transform="translate(27.03 29.39)"/>
</clipPath>
<clipPath id="clip2_4_207">
<rect width="44.1472" height="40.39" fill="white" transform="translate(27.0364 29.39)"/>
</clipPath>
</defs>
</svg>
