<svg width="100" height="96" viewBox="0 0 100 96" fill="none" xmlns="http://www.w3.org/2000/svg">
<g filter="url(#filter0_dd_4_434)">
<rect x="24" y="20" width="60" height="60" rx="30" fill="black" shape-rendering="crispEdges"/>
<g clip-path="url(#clip0_4_434)">
<path fill-rule="evenodd" clip-rule="evenodd" d="M68.7162 38.4889C68.4616 36.9135 67.5114 35.9648 65.9805 35.7483C65.9432 35.7394 62.2151 35.0243 56.3643 35.0243C50.5151 35.0243 46.787 35.7394 46.7619 35.7451C45.5643 35.9154 44.7292 36.5292 44.2954 37.5224C46.8025 37.2452 49.3233 37.1091 51.8457 37.1146C57.5165 37.1146 61.2892 37.7665 61.843 37.8686C64.3395 38.2432 66.0754 39.9751 66.4954 42.5129C66.677 43.34 67.2511 46.2475 67.2511 49.7186C67.2511 51.577 67.0841 53.2821 66.9041 54.5851C67.8932 54.1667 68.516 53.3283 68.7122 52.117C68.7187 52.087 69.4362 49.0246 69.4362 45.294C69.4362 41.5643 68.7187 38.5019 68.7146 38.4881" fill="white"/>
<path fill-rule="evenodd" clip-rule="evenodd" d="M64.1976 42.9135C63.943 41.3373 62.9919 40.3886 61.4619 40.1713C61.4246 40.1632 57.6965 39.4497 51.8465 39.4497C45.9973 39.4497 42.2684 40.1632 42.244 40.1697C40.7011 40.3886 39.7508 41.3373 39.5003 42.8965C39.4921 42.9265 38.7754 45.9889 38.7754 49.7194C38.7754 53.4492 39.4921 56.5116 39.4962 56.5246C39.7508 58.1008 40.7011 59.0494 42.2319 59.2667C42.2619 59.2724 44.6805 59.7354 48.664 59.9162L51.0381 64.0286C51.12 64.1706 51.2378 64.2885 51.3797 64.3704C51.5216 64.4524 51.6826 64.4955 51.8465 64.4955C52.0103 64.4955 52.1713 64.4524 52.3132 64.3704C52.4551 64.2885 52.573 64.1706 52.6549 64.0286L55.0297 59.917C59.0132 59.7354 61.4294 59.2732 61.4497 59.2684C62.9919 59.0494 63.943 58.1008 64.1935 56.5416C64.2016 56.5116 64.9176 53.4492 64.9176 49.7194C64.9176 45.9889 64.2008 42.9265 64.1976 42.9135Z" fill="white"/>
</g>
</g>
<defs>
<filter id="filter0_dd_4_434" x="12" y="10" width="84" height="84" filterUnits="userSpaceOnUse" color-interpolation-filters="sRGB">
<feFlood flood-opacity="0" result="BackgroundImageFix"/>
<feColorMatrix in="SourceAlpha" type="matrix" values="0 0 0 0 0 0 0 0 0 0 0 0 0 0 0 0 0 0 127 0" result="hardAlpha"/>
<feOffset dy="2"/>
<feGaussianBlur stdDeviation="6"/>
<feComposite in2="hardAlpha" operator="out"/>
<feColorMatrix type="matrix" values="0 0 0 0 0 0 0 0 0 0 0 0 0 0 0 0 0 0 0.2 0"/>
<feBlend mode="normal" in2="BackgroundImageFix" result="effect1_dropShadow_4_434"/>
<feColorMatrix in="SourceAlpha" type="matrix" values="0 0 0 0 0 0 0 0 0 0 0 0 0 0 0 0 0 0 127 0" result="hardAlpha"/>
<feOffset dy="1"/>
<feGaussianBlur stdDeviation="2"/>
<feComposite in2="hardAlpha" operator="out"/>
<feColorMatrix type="matrix" values="0 0 0 0 0 0 0 0 0 0 0 0 0 0 0 0 0 0 0.1 0"/>
<feBlend mode="normal" in2="effect1_dropShadow_4_434" result="effect2_dropShadow_4_434"/>
<feBlend mode="normal" in="SourceGraphic" in2="effect2_dropShadow_4_434" result="shape"/>
</filter>
<clipPath id="clip0_4_434">
<rect width="32" height="30" fill="white" transform="translate(38 35)"/>
</clipPath>
</defs>
</svg>
